<?xml version="1.0" encoding="UTF-8" standalone="no"?>
<svg
   xmlns:dc="http://purl.org/dc/elements/1.1/"
   xmlns:cc="http://creativecommons.org/ns#"
   xmlns:rdf="http://www.w3.org/1999/02/22-rdf-syntax-ns#"
   xmlns:svg="http://www.w3.org/2000/svg"
   xmlns="http://www.w3.org/2000/svg"
   xmlns:sodipodi="http://sodipodi.sourceforge.net/DTD/sodipodi-0.dtd"
   xmlns:inkscape="http://www.inkscape.org/namespaces/inkscape"
   version="1.1"
   id="Layer_1"
   x="0px"
   y="0px"
   viewBox="0 0 460 460"
   style="enable-background:new 0 0 460 460;"
   xml:space="preserve"
   sodipodi:docname="Delete.svg"
   inkscape:version="1.0.2 (e86c870879, 2021-01-15)"><metadata
   id="metadata61"><rdf:RDF><cc:Work
       rdf:about=""><dc:format>image/svg+xml</dc:format><dc:type
         rdf:resource="http://purl.org/dc/dcmitype/StillImage" /><dc:title></dc:title></cc:Work></rdf:RDF></metadata><defs
   id="defs59" /><sodipodi:namedview
   pagecolor="#ffffff"
   bordercolor="#666666"
   borderopacity="1"
   objecttolerance="10"
   gridtolerance="10"
   guidetolerance="10"
   inkscape:pageopacity="0"
   inkscape:pageshadow="2"
   inkscape:window-width="1896"
   inkscape:window-height="1031"
   id="namedview57"
   showgrid="false"
   inkscape:zoom="0.5"
   inkscape:cx="401.19755"
   inkscape:cy="249.69934"
   inkscape:window-x="1930"
   inkscape:window-y="35"
   inkscape:window-maximized="0"
   inkscape:current-layer="Layer_1" />
<g
   id="g24">
	<path
   style="fill:#ff7f4f;fill-opacity:1"
   d="M230,0C102.974,0,0,102.975,0,230c0,104.69,69.945,193.043,165.653,220.878l284.664-287.124   C421.871,69.021,333.996,0,230,0z"
   id="path2" />
	<path
   style="fill:#ff5419;fill-opacity:1"
   d="M460,230c0-23.03-3.4-45.263-9.7-66.241l-48.78-48.78L59.146,344.354l106.511,106.511   C186.076,456.804,207.664,460,230,460C357.025,460,460,357.026,460,230z"
   id="path4" />
	<path
   style="fill:#d48b07;fill-opacity:1"
   d="M380.333,106.167H230.5l-52.857,124l52.857,123h149.833c16.5,0,30-13.5,30-30v-187   C410.333,119.667,396.833,106.167,380.333,106.167z"
   id="path6" />
	<path
   style="fill:#ffc61b;fill-opacity:1"
   d="M80.333,106.167c-16.5,0-30,13.5-30,30v187c0,16.5,13.5,30,30,30H230.5v-247   C230.5,106.167,80.333,106.167,80.333,106.167z"
   id="path8" />
	
	
	
	<rect
   x="80.833"
   y="139.67348"
   style="fill:#fee187;fill-opacity:1"
   width="159.88339"
   height="179.99352"
   id="rect16" />
	<rect
   x="230.50363"
   y="139.67381"
   style="fill:#ffc61b;fill-opacity:1"
   width="150.16238"
   height="179.99318"
   id="rect18" />
	
	
</g>
<g
   id="g26">
</g>
<g
   id="g28">
</g>
<g
   id="g30">
</g>
<g
   id="g32">
</g>
<g
   id="g34">
</g>
<g
   id="g36">
</g>
<g
   id="g38">
</g>
<g
   id="g40">
</g>
<g
   id="g42">
</g>
<g
   id="g44">
</g>
<g
   id="g46">
</g>
<g
   id="g48">
</g>
<g
   id="g50">
</g>
<g
   id="g52">
</g>
<g
   id="g54">
</g>
<path
   style="fill:#c2001b"
   d="m 307.79663,229.35626 c 0,42.688 -34.605,77.293 -77.293,77.293 l -27.293,-77.293 27.293,-77.293 c 42.688,0 77.293,34.606 77.293,77.293 z"
   id="path22" /><path
   style="fill:#ff0f27"
   d="m 153.20963,229.35626 c 0,42.688 34.605,77.293 77.293,77.293 v -154.586 c -42.687,0 -77.293,34.605 -77.293,77.293 z"
   id="path24" /><rect
   x="187.50363"
   y="219.35626"
   style="fill:#ffffff"
   width="86"
   height="20"
   id="rect26" /></svg>
