<?xml version="1.0" encoding="UTF-8" standalone="no"?>
<svg
   xmlns:dc="http://purl.org/dc/elements/1.1/"
   xmlns:cc="http://creativecommons.org/ns#"
   xmlns:rdf="http://www.w3.org/1999/02/22-rdf-syntax-ns#"
   xmlns:svg="http://www.w3.org/2000/svg"
   xmlns="http://www.w3.org/2000/svg"
   xmlns:sodipodi="http://sodipodi.sourceforge.net/DTD/sodipodi-0.dtd"
   xmlns:inkscape="http://www.inkscape.org/namespaces/inkscape"
   width="210mm"
   height="297mm"
   viewBox="0 0 210 297"
   version="1.1"
   id="svg8"
   inkscape:version="1.0.2 (e86c870879, 2021-01-15)"
   sodipodi:docname="Logo.svg">
  <defs
     id="defs2" />
  <sodipodi:namedview
     id="base"
     pagecolor="#ffffff"
     bordercolor="#666666"
     borderopacity="1.0"
     inkscape:pageopacity="0.0"
     inkscape:pageshadow="2"
     inkscape:zoom="0.98994949"
     inkscape:cx="133.08909"
     inkscape:cy="511.8875"
     inkscape:document-units="mm"
     inkscape:current-layer="layer1"
     inkscape:document-rotation="0"
     showgrid="false"
     inkscape:window-width="1896"
     inkscape:window-height="1030"
     inkscape:window-x="10"
     inkscape:window-y="36"
     inkscape:window-maximized="0" />
  <metadata
     id="metadata5">
    <rdf:RDF>
      <cc:Work
         rdf:about="">
        <dc:format>image/svg+xml</dc:format>
        <dc:type
           rdf:resource="http://purl.org/dc/dcmitype/StillImage" />
        <dc:title></dc:title>
      </cc:Work>
    </rdf:RDF>
  </metadata>
  <g
     inkscape:label="Layer 1"
     inkscape:groupmode="layer"
     id="layer1">
    <path
       style="fill:#000000;stroke:#000000;stroke-width:0.264583px;stroke-linecap:butt;stroke-linejoin:miter;stroke-opacity:1;fill-opacity:1"
       d="M 125.8541,73.642679 C 116.33726,57.283755 77.834558,58.525337 73.492589,58.508942 17.977765,58.66676 21.891858,96.968518 20.48476,113.75535 c -0.259859,3.94255 0.139032,31.23078 0.139032,31.23078 13.075117,-0.0119 19.85874,-2.25675 25.857509,-9.97812 -7.843283,5.50671 -9.13558,3.00098 -9.208906,1.53708 -0.0458,-13.77164 4.948296,-39.518777 18.882497,-59.764252 5.880524,-8.441858 56.648298,-9.227757 69.699208,-3.138159 z"
       id="path44"
       sodipodi:nodetypes="cccccccc" />
    <path
       id="path46"
       style="opacity:1;fill:#000000;fill-opacity:1;stroke:#000000;stroke-width:0.999999px;stroke-linecap:butt;stroke-linejoin:miter;stroke-opacity:1"
       d="M 419.45312 298.09375 C 411.51922 298.04885 310.83395 301.55446 312.60156 335.87891 C 313.48545 353.63814 326.28186 349.7791 326.17578 370.0957 C 324.94156 387.70171 306.19512 401.58888 285.10938 400.33789 C 255.8476 398.18579 251.00616 386.13594 222.17578 386.36914 C 218.13155 386.49273 199.15701 385.17858 199.35547 401.40039 C 208.00344 433.71134 206.77626 436.61431 200.02734 461.85547 C 199.04955 465.6424 206.73767 477.36702 216.93164 464.92969 C 228.2227 449.6486 227.05014 421.16547 265.66211 419.02539 C 275.0731 418.82848 309.6201 425.41457 308.87305 448.95312 C 307.86077 466.62087 285.37003 472.15175 264.14648 487.08398 C 252.10934 495.84429 245.37519 519.33908 236.75977 518.14062 C 225.58495 516.04435 217.5585 504.38055 207.67188 505.76953 C 207.67188 505.76953 214.75958 512.82484 215.55078 518.72461 C 215.9842 523.58293 179.05099 561.66015 104.69141 561.21484 C 91.542755 560.96237 65.619 563.68791 27.367188 538.99414 C 27.367188 538.99414 41.482722 561.13822 70.875 567.13867 C 86.098279 569.90415 82.265313 599.68417 87.400391 618.12891 C 100.8262 652.43005 106.51586 732.88154 298.33789 734.3418 C 419.17496 731.85543 514.4558 722.88318 515.74609 507.35547 L 515.97656 453.99023 C 470.63134 493.72059 425.1314 520.18665 374.38867 534.03711 C 344.74004 539.30819 343.23705 471.24458 336.41797 440.36523 C 344.11883 392.12943 344.36282 307.27537 423.26367 308.36328 C 432.5042 308.36008 444.34966 309.63507 452.9668 323.97852 C 452.9668 323.97852 461.35108 298.22814 419.45312 298.09375 z M 205.35352 552.00781 C 226.89406 552.41818 211.53796 572.03122 211.5332 598.85352 C 211.47948 604.15925 209.38921 656.42511 262.03516 657.43164 C 276.78598 657.93587 310.43898 646.85046 311.13672 616.54492 C 311.35491 609.42921 307.6814 595.11501 288.55078 594.93359 C 278.34969 594.91016 271.78739 605.04634 269.01562 618.05664 C 252.70094 610.70913 267.7958 603.33088 241.27344 605.04883 C 241.6511 589.03588 258.18066 565.36824 293.22266 564.41992 C 300.53311 564.34743 347.73794 565.05439 348.9375 621.28711 C 348.22591 657.26916 322.21079 700.11826 256.99805 701.37695 C 173.16237 700.55989 149.04741 631.97872 148.60547 604.77734 C 148.59907 590.57086 160.83184 553.74751 203.15234 552.0293 C 203.92574 552.00217 204.65866 551.99457 205.35352 552.00781 z "
       transform="scale(0.26458333)" />
  </g>
</svg>
